<svg xmlns="http://www.w3.org/2000/svg" viewBox="0 0 40 39.99"><defs><style>.cls-1{fill:#c00083;}</style></defs><title>Recurso 2</title><g id="Capa_2" data-name="Capa 2"><g id="Capa_1-2" data-name="Capa 1"><path class="cls-1" d="M20,9.74A10.26,10.26,0,1,0,30.26,20,10.24,10.24,0,0,0,20,9.74Zm0,16.92A6.67,6.67,0,1,1,26.67,20,6.68,6.68,0,0,1,20,26.66ZM33.07,9.32a2.39,2.39,0,1,1-2.39-2.39A2.38,2.38,0,0,1,33.07,9.32Zm6.79,2.43c-.15-3.2-.88-6-3.23-8.38S31.45.3,28.25.14,15.05,0,11.75.14,5.72,1,3.37,3.36.3,8.54.14,11.74,0,24.94.14,28.24s.88,6,3.23,8.38,5.18,3.07,8.38,3.23,13.2.19,16.5,0,6-.88,8.38-3.23,3.07-5.18,3.23-8.38.19-13.19,0-16.49Zm-4.27,20a6.75,6.75,0,0,1-3.8,3.81c-2.63,1-8.88.8-11.79.8s-9.16.23-11.78-.8a6.8,6.8,0,0,1-3.81-3.81c-1-2.63-.8-8.88-.8-11.78s-.23-9.17.8-11.79a6.75,6.75,0,0,1,3.81-3.8C10.85,3.36,17.1,3.6,20,3.6s9.17-.23,11.79.81a6.7,6.7,0,0,1,3.8,3.8c1,2.63.81,8.88.81,11.79S36.64,29.16,35.59,31.78Z"/></g></g></svg>